<svg width="680" height="420" viewBox="0 0 680 420" xmlns="http://www.w3.org/2000/svg" role="img">
  <title>My Stack and Interests</title>
  <defs>
    <marker id="arr" viewBox="0 0 10 10" refX="8" refY="5" markerWidth="6" markerHeight="6" orient="auto-start-reverse">
      <path d="M2 1L8 5L2 9" fill="none" stroke="#6b7280" stroke-width="1.5" stroke-linecap="round" stroke-linejoin="round"/>
    </marker>
  </defs>

  <!-- Background -->
  <rect width="680" height="420" rx="12" fill="#161b22"/>

  <!-- ── Main node ── -->
  <rect x="250" y="18" width="180" height="44" rx="8" fill="#7c3aed"/>
  <text x="340" y="40" text-anchor="middle" dominant-baseline="central"
        fill="#ffffff" font-family="'Segoe UI',system-ui,sans-serif" font-size="14" font-weight="600">
    &#x1F6E0;&#xFE0F; My Stack &amp; Interests
  </text>

  <!-- Main → spine -->
  <line x1="340" y1="62" x2="340" y2="88" stroke="#6b7280" stroke-width="1"/>

  <!-- Horizontal spine -->
  <line x1="90" y1="88" x2="550" y2="88" stroke="#6b7280" stroke-width="1"/>

  <!-- Junction dots -->
  <circle cx="90"  cy="88" r="3" fill="#6b7280"/>
  <circle cx="245" cy="88" r="3" fill="#6b7280"/>
  <circle cx="400" cy="88" r="3" fill="#6b7280"/>
  <circle cx="550" cy="88" r="3" fill="#6b7280"/>

  <!-- Spine → category drop arrows -->
  <line x1="90"  y1="91" x2="90"  y2="106" stroke="#6b7280" stroke-width="1" marker-end="url(#arr)"/>
  <line x1="245" y1="91" x2="245" y2="106" stroke="#6b7280" stroke-width="1" marker-end="url(#arr)"/>
  <line x1="400" y1="91" x2="400" y2="106" stroke="#6b7280" stroke-width="1" marker-end="url(#arr)"/>
  <line x1="550" y1="91" x2="550" y2="106" stroke="#6b7280" stroke-width="1" marker-end="url(#arr)"/>

  <!-- ══════════════════════════════════════════ -->
  <!-- FRONTEND  (center=90, items x=35 w=110)   -->
  <!-- ══════════════════════════════════════════ -->
  <rect x="30" y="107" width="120" height="42" rx="8" fill="#1d4ed8"/>
  <text x="90" y="128" text-anchor="middle" dominant-baseline="central"
        fill="#ffffff" font-family="'Segoe UI',system-ui,sans-serif" font-size="14" font-weight="600">Frontend</text>

  <line x1="90" y1="149" x2="90" y2="168" stroke="#6b7280" stroke-width="1" marker-end="url(#arr)"/>

  <rect x="35" y="169" width="110" height="32" rx="6" fill="#1d4ed8"/>
  <text x="90" y="185" text-anchor="middle" dominant-baseline="central"
        fill="#ffffff" font-family="'Segoe UI',system-ui,sans-serif" font-size="13">HTML</text>
  <line x1="90" y1="201" x2="90" y2="211" stroke="#4b5563" stroke-width="0.8"/>

  <rect x="35" y="212" width="110" height="32" rx="6" fill="#1d4ed8"/>
  <text x="90" y="228" text-anchor="middle" dominant-baseline="central"
        fill="#ffffff" font-family="'Segoe UI',system-ui,sans-serif" font-size="13">CSS</text>
  <line x1="90" y1="244" x2="90" y2="254" stroke="#4b5563" stroke-width="0.8"/>

  <rect x="35" y="255" width="110" height="32" rx="6" fill="#1d4ed8"/>
  <text x="90" y="271" text-anchor="middle" dominant-baseline="central"
        fill="#ffffff" font-family="'Segoe UI',system-ui,sans-serif" font-size="13">JavaScript</text>
  <line x1="90" y1="287" x2="90" y2="297" stroke="#4b5563" stroke-width="0.8"/>

  <rect x="35" y="298" width="110" height="32" rx="6" fill="#1d4ed8"/>
  <text x="90" y="314" text-anchor="middle" dominant-baseline="central"
        fill="#ffffff" font-family="'Segoe UI',system-ui,sans-serif" font-size="13">React</text>
  <line x1="90" y1="330" x2="90" y2="340" stroke="#4b5563" stroke-width="0.8"/>

  <rect x="35" y="341" width="110" height="32" rx="6" fill="#1d4ed8"/>
  <text x="90" y="357" text-anchor="middle" dominant-baseline="central"
        fill="#ffffff" font-family="'Segoe UI',system-ui,sans-serif" font-size="13">Next.js</text>

  <!-- ══════════════════════════════════════════════ -->
  <!-- STYLING  (center=245, items x=185 w=120)      -->
  <!-- ══════════════════════════════════════════════ -->
  <rect x="160" y="107" width="170" height="42" rx="8" fill="#9a3412"/>
  <text x="245" y="128" text-anchor="middle" dominant-baseline="central"
        fill="#ffffff" font-family="'Segoe UI',system-ui,sans-serif" font-size="14" font-weight="600">Styling &amp; Animation</text>

  <line x1="245" y1="149" x2="245" y2="168" stroke="#6b7280" stroke-width="1" marker-end="url(#arr)"/>

  <rect x="185" y="169" width="120" height="32" rx="6" fill="#9a3412"/>
  <text x="245" y="185" text-anchor="middle" dominant-baseline="central"
        fill="#ffffff" font-family="'Segoe UI',system-ui,sans-serif" font-size="13">Tailwind CSS</text>
  <line x1="245" y1="201" x2="245" y2="211" stroke="#4b5563" stroke-width="0.8"/>

  <rect x="185" y="212" width="120" height="32" rx="6" fill="#9a3412"/>
  <text x="245" y="228" text-anchor="middle" dominant-baseline="central"
        fill="#ffffff" font-family="'Segoe UI',system-ui,sans-serif" font-size="13">DaisyUI</text>
  <line x1="245" y1="244" x2="245" y2="254" stroke="#4b5563" stroke-width="0.8"/>

  <rect x="185" y="255" width="120" height="32" rx="6" fill="#9a3412"/>
  <text x="245" y="271" text-anchor="middle" dominant-baseline="central"
        fill="#ffffff" font-family="'Segoe UI',system-ui,sans-serif" font-size="13">GSAP</text>
  <line x1="245" y1="287" x2="245" y2="297" stroke="#4b5563" stroke-width="0.8"/>

  <rect x="185" y="298" width="120" height="32" rx="6" fill="#9a3412"/>
  <text x="245" y="314" text-anchor="middle" dominant-baseline="central"
        fill="#ffffff" font-family="'Segoe UI',system-ui,sans-serif" font-size="13">Framer Motion</text>

  <!-- ══════════════════════════════════════════ -->
  <!-- TOOLS  (center=400, items x=345 w=110)    -->
  <!-- ══════════════════════════════════════════ -->
  <rect x="340" y="107" width="120" height="42" rx="8" fill="#0f766e"/>
  <text x="400" y="128" text-anchor="middle" dominant-baseline="central"
        fill="#ffffff" font-family="'Segoe UI',system-ui,sans-serif" font-size="14" font-weight="600">Tools</text>

  <line x1="400" y1="149" x2="400" y2="168" stroke="#6b7280" stroke-width="1" marker-end="url(#arr)"/>

  <rect x="345" y="169" width="110" height="32" rx="6" fill="#0f766e"/>
  <text x="400" y="185" text-anchor="middle" dominant-baseline="central"
        fill="#ffffff" font-family="'Segoe UI',system-ui,sans-serif" font-size="13">Git</text>
  <line x1="400" y1="201" x2="400" y2="211" stroke="#4b5563" stroke-width="0.8"/>

  <rect x="345" y="212" width="110" height="32" rx="6" fill="#0f766e"/>
  <text x="400" y="228" text-anchor="middle" dominant-baseline="central"
        fill="#ffffff" font-family="'Segoe UI',system-ui,sans-serif" font-size="13">VS Code</text>
  <line x1="400" y1="244" x2="400" y2="254" stroke="#4b5563" stroke-width="0.8"/>

  <rect x="345" y="255" width="110" height="32" rx="6" fill="#0f766e"/>
  <text x="400" y="271" text-anchor="middle" dominant-baseline="central"
        fill="#ffffff" font-family="'Segoe UI',system-ui,sans-serif" font-size="13">Figma</text>

  <!-- ══════════════════════════════════════════════ -->
  <!-- LEARNING  (center=550, items x=490 w=120)     -->
  <!-- ══════════════════════════════════════════════ -->
  <rect x="465" y="107" width="170" height="42" rx="8" fill="#d97706"/>
  <text x="550" y="128" text-anchor="middle" dominant-baseline="central"
        fill="#ffffff" font-family="'Segoe UI',system-ui,sans-serif" font-size="14" font-weight="600">Currently Learning</text>

  <line x1="550" y1="149" x2="550" y2="168" stroke="#6b7280" stroke-width="1" marker-end="url(#arr)"/>

  <rect x="490" y="169" width="120" height="32" rx="6" fill="#d97706"/>
  <text x="550" y="185" text-anchor="middle" dominant-baseline="central"
        fill="#ffffff" font-family="'Segoe UI',system-ui,sans-serif" font-size="13">Backend Dev</text>
  <line x1="550" y1="201" x2="550" y2="211" stroke="#4b5563" stroke-width="0.8"/>

  <rect x="490" y="212" width="120" height="32" rx="6" fill="#d97706"/>
  <text x="550" y="228" text-anchor="middle" dominant-baseline="central"
        fill="#ffffff" font-family="'Segoe UI',system-ui,sans-serif" font-size="13">System Design</text>

</svg>
